<?xml version="1.0" encoding="utf-8"?>
<!-- Generator: Adobe Illustrator 16.0.0, SVG Export Plug-In . SVG Version: 6.00 Build 0)  -->
<!DOCTYPE svg PUBLIC "-//W3C//DTD SVG 1.1//EN" "http://www.w3.org/Graphics/SVG/1.1/DTD/svg11.dtd">
<svg version="1.1" id="图层_1" xmlns="http://www.w3.org/2000/svg" xmlns:xlink="http://www.w3.org/1999/xlink" x="0px" y="0px"
	 width="200px" height="200px" viewBox="0 0 200 200" enable-background="new 0 0 200 200" xml:space="preserve">
<g>
	<path fill="rgb(71,120,199)" d="M68.901,160.017c-7.675,0-13.92,6.245-13.92,13.92s6.245,13.92,13.92,13.92
		c7.68,0,13.928-6.245,13.928-13.92S76.581,160.017,68.901,160.017z"/>
	<path fill="#272636" d="M152.995,160.017c-7.678,0-13.924,6.245-13.924,13.92s6.246,13.92,13.924,13.92
		c7.682,0,13.932-6.245,13.932-13.92S160.677,160.017,152.995,160.017z"/>
	<path fill="rgb(71,120,199)" d="M180.107,39.888c-3.437-3.877-8.161-6.013-13.303-6.013H47.952l-0.144-0.83
		c-1.206-9.642-9.719-17.188-19.4-17.188h-7.654c-4.363,0-7.913,3.549-7.913,7.91c0,4.364,3.55,7.914,7.913,7.914h7.654
		c1.693,0,3.508,1.759,3.733,3.619l0.005,0.042l5.809,33.583l10.183,71.657c1.182,9.667,9.617,17.237,19.212,17.237l1.701-0.003
		h95.867c4.362,0,7.911-3.545,7.911-7.903c0-4.366-3.549-7.918-7.911-7.918H67.35c-1.595,0-3.301-1.666-3.511-3.427l-0.713-5.028
		l93.316-5.746c4.604-0.029,9.103-1.786,12.674-4.955c3.549-3.169,5.819-7.421,6.394-11.976l9.459-54.07l0.013-0.086
		C185.755,50.383,183.979,44.253,180.107,39.888z"/>
</g>
</svg>
