<?xml version="1.0" encoding="utf-8"?>
<!-- Generator: Adobe Illustrator 16.0.0, SVG Export Plug-In . SVG Version: 6.00 Build 0)  -->
<!DOCTYPE svg PUBLIC "-//W3C//DTD SVG 1.1//EN" "http://www.w3.org/Graphics/SVG/1.1/DTD/svg11.dtd">
<svg version="1.1" id="图层_1" xmlns="http://www.w3.org/2000/svg" xmlns:xlink="http://www.w3.org/1999/xlink" x="0px" y="0px"
	 width="200px" height="200px" viewBox="0 0 200 200" enable-background="new 0 0 200 200" xml:space="preserve">
<g>
	<path fill="#999999" d="M127.19,156.916c0-2.13-1.533-3.855-3.429-3.855H75.719c-1.896,0-3.43,1.725-3.43,3.855v15.434H37.978
		v11.586h123.525V172.35H127.19V156.916z"/>
	<rect x="70.593" y="82.576" fill="#999999" width="20.873" height="42.079"/>
	<rect x="41.357" y="101.283" fill="#999999" width="20.873" height="23.372"/>
	<rect x="103.989" y="45.183" fill="#999999" width="20.873" height="79.473"/>
	<path fill="#999999" d="M176.909,16.295H22.572C16.183,16.295,11,21.471,11,27.867v108.041c0,6.383,5.175,11.572,11.572,11.572
		h154.337c6.39,0,11.578-5.182,11.578-11.572V27.867C188.487,21.479,183.312,16.295,176.909,16.295z M176.909,132.039
		c0,2.129-1.725,3.855-3.855,3.855H26.434c-2.137,0-3.855-1.726-3.855-3.855V31.723c0-2.129,1.718-3.855,3.855-3.855h146.62
		c2.131,0,3.855,1.718,3.855,3.855V132.039z"/>
	<rect x="137.386" y="63.883" fill="#999999" width="20.873" height="60.772"/>
</g>
</svg>
