<?xml version="1.0" encoding="utf-8"?>
<!-- Generator: Adobe Illustrator 16.0.0, SVG Export Plug-In . SVG Version: 6.00 Build 0)  -->
<!DOCTYPE svg PUBLIC "-//W3C//DTD SVG 1.1//EN" "http://www.w3.org/Graphics/SVG/1.1/DTD/svg11.dtd">
<svg version="1.1" id="图层_1" xmlns="http://www.w3.org/2000/svg" xmlns:xlink="http://www.w3.org/1999/xlink" x="0px" y="0px"
	 width="200px" height="200px" viewBox="0 0 200 200" enable-background="new 0 0 200 200" xml:space="preserve">
<path fill="rgb(71,120,199)" d="M177.203,16.295H22.865c-6.389,0-11.571,5.175-11.571,11.572v108.041c0,6.382,5.175,11.572,11.571,11.572
	h49.718v24.869H38.272v11.586h123.524v-11.586h-34.312V147.48h49.718c6.389,0,11.579-5.182,11.579-11.572V27.867
	C188.782,21.478,183.606,16.295,177.203,16.295z M62.522,124.655H41.65v-23.371h20.872V124.655z M91.758,124.655H70.886V82.576
	h20.872V124.655z M125.156,124.655h-20.874V45.184h20.874V124.655z M158.552,124.655h-20.873V63.884h20.873V124.655z"/>
</svg>
