<?xml version="1.0" encoding="utf-8"?>
<!-- Generator: Adobe Illustrator 16.0.0, SVG Export Plug-In . SVG Version: 6.00 Build 0)  -->
<!DOCTYPE svg PUBLIC "-//W3C//DTD SVG 1.1//EN" "http://www.w3.org/Graphics/SVG/1.1/DTD/svg11.dtd">
<svg version="1.1" id="图层_1" xmlns="http://www.w3.org/2000/svg" xmlns:xlink="http://www.w3.org/1999/xlink" x="0px" y="0px"
	 width="200px" height="200px" viewBox="0 0 200 200" enable-background="new 0 0 200 200" xml:space="preserve">
<path fill="#272636" d="M139.236,161.514h-17.635c-4.87,0-8.815-3.948-8.815-8.817V46.891c0-4.869,3.945-8.816,8.815-8.816h17.635
	c4.869,0,8.816,3.948,8.816,8.816v105.807C148.053,157.566,144.105,161.514,139.236,161.514z M81.303,161.514H63.669
	c-4.87,0-8.817-3.948-8.817-8.817V46.891c0-4.869,3.947-8.816,8.817-8.816h17.634c4.868,0,8.816,3.948,8.816,8.816v105.807
	C90.119,157.566,86.171,161.514,81.303,161.514z"/>
</svg>
