<?xml version="1.0" encoding="utf-8"?>
<!-- Generator: Adobe Illustrator 16.0.0, SVG Export Plug-In . SVG Version: 6.00 Build 0)  -->
<!DOCTYPE svg PUBLIC "-//W3C//DTD SVG 1.1//EN" "http://www.w3.org/Graphics/SVG/1.1/DTD/svg11.dtd">
<svg version="1.1" id="图层_1" xmlns="http://www.w3.org/2000/svg" xmlns:xlink="http://www.w3.org/1999/xlink" x="0px" y="0px"
	 width="200px" height="200px" viewBox="0 0 200 200" enable-background="new 0 0 200 200" xml:space="preserve">
<path fill="#272636" d="M177.356,62.225c0,0-22.742,22.924-25.061,25.267c-2.321,2.332-10.171,2.092-10.171,2.092
	s-20.766-2.355-23.771-5.337c-2.971-2.994-5.028-24.73-5.028-24.73s-0.583-6.045,2.41-9.051c2.983-2.994,25.188-25.21,25.188-25.21
	s2.845-3.2-1.28-3.223c-13.313-0.045-40.364,0.263-53.459,13.394l-2.721,2.685c-15.131,15.246-16.468,38.067-4.914,54.832
	l-50.785,44.969c-6.104,6.102-12.697,24.136,0,36.855c12.696,12.719,30.672,6.102,36.752-0.012c0,0,36.295-40.877,45.105-50.568
	c16.708,11.987,39.701,10.799,55.015-4.571l2.695-2.697c12.697-12.742,13.108-39.575,13.166-53.151
	C180.533,59.437,177.356,62.225,177.356,62.225z M50.026,167.556c-8.33,0-15.062-6.719-15.062-15.05
	c0-8.309,6.742-15.051,15.062-15.051c8.32,0,15.039,6.754,15.039,15.051C65.065,160.836,58.347,167.556,50.026,167.556z"/>
</svg>
