<?xml version="1.0" standalone="no"?><!DOCTYPE svg PUBLIC "-//W3C//DTD SVG 1.1//EN" "http://www.w3.org/Graphics/SVG/1.1/DTD/svg11.dtd"><svg t="1490248124556" class="icon" style="" viewBox="0 0 1024 1024" version="1.1" xmlns="http://www.w3.org/2000/svg" p-id="995" xmlns:xlink="http://www.w3.org/1999/xlink" width="200" height="200"><defs><style type="text/css"></style></defs><path d="M529.518 631.556c0.167-0.167 0.308-0.349 0.469-0.52l203.606-203.607c9.668-9.662 9.668-25.319 0-34.984-9.662-9.669-25.319-9.669-34.984 0L511.998 579.051 325.393 392.447c-9.667-9.669-25.325-9.669-34.987 0-4.833 4.831-7.252 11.159-7.252 17.492 0 6.328 2.419 12.659 7.252 17.491L494.02 631.046c0.158 0.167 0.297 0.346 0.461 0.51 4.84 4.839 11.182 7.254 17.519 7.248C518.338 638.81 524.679 636.394 529.518 631.556z" p-id="996" fill="#8a8a8a"></path></svg>