<?xml version="1.0" encoding="utf-8"?>
<!-- Generator: Adobe Illustrator 16.0.0, SVG Export Plug-In . SVG Version: 6.00 Build 0)  -->
<!DOCTYPE svg PUBLIC "-//W3C//DTD SVG 1.1//EN" "http://www.w3.org/Graphics/SVG/1.1/DTD/svg11.dtd">
<svg version="1.1" id="图层_1" xmlns="http://www.w3.org/2000/svg" xmlns:xlink="http://www.w3.org/1999/xlink" x="0px" y="0px"
	 width="200px" height="200px" viewBox="0 0 200 200" enable-background="new 0 0 200 200" xml:space="preserve">
<path fill="rgb(71,120,199)" d="M164.503,46.328C128.315,11.013,70.35,11.72,35.035,47.908C-0.28,84.095,0.428,142.061,36.614,177.376
	h127.889c0.533-0.52,1.059-1.046,1.579-1.58C201.397,139.609,200.69,81.644,164.503,46.328z M110.787,32.288l1.999,26.08
	l-13.079,1.007l-1.999-26.08L110.787,32.288z M24.816,117.957l-1.007-13.08l26.093-2l0.994,13.079L24.816,117.957z M63.622,77.529
	L43.77,60.526l8.5-9.927l19.868,17.002L63.622,77.529z M107.098,136.373c-6.188,3.245-13.824,1.412-17.865-4.29
	c-0.956-1.509-1.512-3.239-1.609-5.023L74.4,85.717l33.416,30.867c1.631,0.918,3.023,2.204,4.068,3.753v0.053
	c0.275,0.435,0.521,0.89,0.732,1.359C115.133,127.313,112.661,133.859,107.098,136.373z M138.135,72.088l17.003-19.854l9.927,8.514
	l-17.002,19.854L138.135,72.088z M157.231,121.292l-0.995-13.079l26.08-2.001l1.008,13.079L157.231,121.292z"/>
</svg>
