<?xml version="1.0" encoding="utf-8"?>
<!-- Generator: Adobe Illustrator 16.0.0, SVG Export Plug-In . SVG Version: 6.00 Build 0)  -->
<!DOCTYPE svg PUBLIC "-//W3C//DTD SVG 1.1//EN" "http://www.w3.org/Graphics/SVG/1.1/DTD/svg11.dtd">
<svg version="1.1" id="图层_1" xmlns="http://www.w3.org/2000/svg" xmlns:xlink="http://www.w3.org/1999/xlink" x="0px" y="0px"
	 width="200px" height="200px" viewBox="0 0 200 200" enable-background="new 0 0 200 200" xml:space="preserve">
<g>
	<path fill="#999999" d="M164.405,46.36c-17.195-16.589-39.895-25.726-63.918-25.726c-24.874,0-48.138,9.69-65.508,27.287
		C-0.269,83.627,0.44,141.024,36.558,175.869l1.911,1.844h124.024l1.91-1.843c0.534-0.515,1.063-1.037,1.579-1.562
		c17.075-17.296,26.315-40.131,26.018-64.297C191.7,85.844,181.9,63.239,164.405,46.36z M157.09,164.745H43.871
		c-12.764-13.161-19.881-29.84-21.354-46.929l27.501-2.086l-1.081-14.087l-26.353,1.997c1.522-15.799,7.881-31.214,19.086-43.785
		L62.512,77.5l9.621-11.088L52.506,49.808c12.928-9.937,28.556-15.557,45.136-16.136l1.988,25.631l13.033-0.992l-1.864-24.027
		c15.887,2.059,30.678,8.855,42.62,19.68l-15.521,17.918l9.803,8.312l14.557-16.803c9.794,12.339,15.534,27.221,16.485,43.035
		l-22.465,1.704l0.99,12.895l21.156-1.604C176.605,136.415,169.225,152.231,157.09,164.745z"/>
	<path fill="#999999" d="M111.839,120.279v-0.053c-1.049-1.538-2.448-2.814-4.085-3.725l-33.55-30.635l13.276,41.033
		c0.099,1.771,0.655,3.487,1.615,4.985c4.058,5.659,11.724,7.478,17.937,4.258c5.583-2.494,8.065-8.992,5.542-14.513
		C112.361,121.163,112.115,120.71,111.839,120.279z"/>
</g>
</svg>
