<?xml version="1.0" encoding="utf-8"?>
<!-- Generator: Adobe Illustrator 16.0.0, SVG Export Plug-In . SVG Version: 6.00 Build 0)  -->
<!DOCTYPE svg PUBLIC "-//W3C//DTD SVG 1.1//EN" "http://www.w3.org/Graphics/SVG/1.1/DTD/svg11.dtd">
<svg version="1.1" id="图层_1" xmlns="http://www.w3.org/2000/svg" xmlns:xlink="http://www.w3.org/1999/xlink" x="0px" y="0px"
	 width="200px" height="200px" viewBox="0 0 200 200" enable-background="new 0 0 200 200" xml:space="preserve">
<g>
	<path fill-rule="evenodd" clip-rule="evenodd" fill="#272536" d="M142.869,186.001H63.866c-11.636,0-21.068-9.512-21.068-21.25
		V37.25C42.798,25.512,52.23,16,63.866,16h79.003c11.636,0,21.068,9.512,21.068,21.25v127.501
		C163.938,176.489,154.505,186.001,142.869,186.001L142.869,186.001z M153.401,37.25c0-5.865-4.716-10.625-10.532-10.625H63.866
		c-5.816,0-10.534,4.76-10.534,10.625v5.313h100.069V37.25L153.401,37.25z M153.401,53.188H53.332v84.836h100.069V53.188
		L153.401,53.188z M153.401,148.648H53.332v16.103c0,5.869,4.718,10.625,10.534,10.625h79.003c5.816,0,10.532-4.756,10.532-10.625
		V148.648L153.401,148.648z M103.368,170.063c-4.361,0-7.898-3.568-7.898-7.969c0-4.401,3.537-7.97,7.898-7.97
		s7.897,3.567,7.897,7.97C111.266,166.495,107.729,170.063,103.368,170.063L103.368,170.063z"/>
</g>
</svg>
