<?xml version="1.0" encoding="utf-8"?>
<!-- Generator: Adobe Illustrator 16.0.0, SVG Export Plug-In . SVG Version: 6.00 Build 0)  -->
<!DOCTYPE svg PUBLIC "-//W3C//DTD SVG 1.1//EN" "http://www.w3.org/Graphics/SVG/1.1/DTD/svg11.dtd">
<svg version="1.1" id="图层_1" xmlns="http://www.w3.org/2000/svg" xmlns:xlink="http://www.w3.org/1999/xlink" x="0px" y="0px"
	 width="200px" height="200px" viewBox="0 0 200 200" enable-background="new 0 0 200 200" xml:space="preserve">
<path fill="rgb(71,120,199)" d="M176.946,181.439c0.035-0.942,0.054-1.889,0.054-2.839c0-34.514-23.358-63.566-55.128-72.226
	c16.76-8.218,28.349-25.307,28.349-45.148c0-27.439-22.451-49.888-49.889-49.888c-27.439,0-49.888,22.449-49.888,49.888
	c0,20.49,12.257,37.827,29.83,45.763c-19.131,5.834-35.007,19.122-44.251,36.482c-0.012,0.022-0.023,0.044-0.036,0.067
	c-0.195,0.37-0.393,0.74-0.584,1.114c-5.196,10.115-8.123,21.592-8.123,33.812v4.632c0,0.356,0.074,0.697,0.202,1.017
	c0.054,0.744,0.117,1.485,0.193,2.224h148.929c0.112-1.094,0.198-2.195,0.264-3.301c0.051-0.215,0.078-0.433,0.078-0.651V181.439z"
	/>
</svg>
