<?xml version="1.0" encoding="utf-8"?>
<!-- Generator: Adobe Illustrator 16.0.0, SVG Export Plug-In . SVG Version: 6.00 Build 0)  -->
<!DOCTYPE svg PUBLIC "-//W3C//DTD SVG 1.1//EN" "http://www.w3.org/Graphics/SVG/1.1/DTD/svg11.dtd">
<svg version="1.1" id="图层_1" xmlns="http://www.w3.org/2000/svg" xmlns:xlink="http://www.w3.org/1999/xlink" x="0px" y="0px"
	 width="200px" height="200px" viewBox="0 0 200 200" enable-background="new 0 0 200 200" xml:space="preserve">
<g>
	<path fill="#999999" d="M136.153,26.209c-9.59-9.59-22.29-14.872-35.761-14.872s-26.171,5.282-35.761,14.872
		c-9.59,9.59-14.872,22.29-14.872,35.761c0,10.12,2.971,19.876,8.592,28.213c4.661,6.915,10.933,12.577,18.299,16.557
		c-6.194,2.231-12.054,5.245-17.467,8.989c-6.498,4.495-12.211,9.941-16.979,16.187c-9.917,12.99-15.159,28.559-15.159,45.024v4.543
		c0,2.586,2.433,4.854,5.205,4.854h0.35c1.496,0,2.829-0.601,3.754-1.692c0.907-1.071,1.304-2.518,1.101-3.99v-3.716
		c0-35.283,29.018-63.987,64.687-63.987h0.698l0.115-0.004c12.997-0.878,25.093-6.557,34.061-15.991
		c9.035-9.506,14.012-21.932,14.012-34.988C151.026,48.5,145.744,35.799,136.153,26.209z M100.393,21.746
		c22.181,0,40.225,18.044,40.225,40.224s-18.044,40.225-40.225,40.225c-22.18,0-40.225-18.045-40.225-40.225
		S78.213,21.746,100.393,21.746z"/>
	<path fill="#999999" d="M152.232,121.177c-0.892-0.872-2.059-1.352-3.293-1.352c-1.422,0-2.871,0.634-3.979,1.74
		c-1.982,1.984-1.832,5.127,0.351,7.311l0.065,0.062c13.631,12.268,21.449,29.636,21.449,47.652v3.844
		c0,3.063,2.178,5.554,4.854,5.554h0.35c2.675,0,5.204-2.529,5.204-5.205v-3.844C177.234,155.641,168.121,135.318,152.232,121.177z"
		/>
</g>
</svg>
