<?xml version="1.0" encoding="utf-8"?>
<!-- Generator: Adobe Illustrator 16.0.0, SVG Export Plug-In . SVG Version: 6.00 Build 0)  -->
<!DOCTYPE svg PUBLIC "-//W3C//DTD SVG 1.1//EN" "http://www.w3.org/Graphics/SVG/1.1/DTD/svg11.dtd">
<svg version="1.1" id="图层_1" xmlns="http://www.w3.org/2000/svg" xmlns:xlink="http://www.w3.org/1999/xlink" x="0px" y="0px"
	 width="200px" height="200px" viewBox="0 0 200 200" enable-background="new 0 0 200 200" xml:space="preserve">
<g>
	<path fill="#272636" d="M169.13,15H52.416c-10.162,0-18.429,8.267-18.429,18.429v122.857H21.701c-3.392,0-6.143,2.751-6.143,6.143
		v6.143c0,10.162,8.267,18.429,18.429,18.429h116.714c10.162,0,18.429-8.267,18.429-18.429V45.714h12.286
		c3.392,0,6.143-2.75,6.143-6.143v-6.143C187.559,23.267,179.292,15,169.13,15z M52.416,174.714H33.987
		c-3.388,0-6.143-2.756-6.143-6.143h98.285c-0.002,2.093,0.354,4.17,1.052,6.143H52.416z M156.845,168.571
		c0,3.387-2.756,6.143-6.144,6.143h-6.143c-3.388,0-6.143-2.756-6.143-6.143v-6.143c0-3.392-2.751-6.143-6.144-6.143h-86V33.429
		c0-3.387,2.756-6.143,6.144-6.143h104.429V168.571z M169.13,33.429v-6.143c3.388,0,6.143,2.756,6.143,6.143H169.13z"/>
	<path fill="#272636" d="M70.845,64.143h61.428c3.393,0,6.144-2.75,6.144-6.143s-2.751-6.143-6.144-6.143H70.845
		c-3.393,0-6.144,2.75-6.144,6.143S67.452,64.143,70.845,64.143z"/>
	<path fill="#272636" d="M70.845,125.571h36.856c3.393,0,6.144-2.75,6.144-6.143s-2.751-6.143-6.144-6.143H70.845
		c-3.393,0-6.144,2.751-6.144,6.143S67.452,125.571,70.845,125.571z"/>
	<path fill="#272636" d="M70.845,94.857h61.428c3.393,0,6.144-2.75,6.144-6.143s-2.751-6.143-6.144-6.143H70.845
		c-3.393,0-6.144,2.75-6.144,6.143S67.452,94.857,70.845,94.857z"/>
</g>
</svg>
