<?xml version="1.0" encoding="utf-8"?>
<!-- Generator: Adobe Illustrator 16.0.0, SVG Export Plug-In . SVG Version: 6.00 Build 0)  -->
<!DOCTYPE svg PUBLIC "-//W3C//DTD SVG 1.1//EN" "http://www.w3.org/Graphics/SVG/1.1/DTD/svg11.dtd">
<svg version="1.1" id="图层_1" xmlns="http://www.w3.org/2000/svg" xmlns:xlink="http://www.w3.org/1999/xlink" x="0px" y="0px"
	 width="200px" height="200px" viewBox="0 0 200 200" enable-background="new 0 0 200 200" xml:space="preserve">
<g>
	<path fill="#272636" d="M162.177,17.921H37.802c-11.563,0-20.625,9.375-20.625,20.625v124.375c0,11.563,9.375,20.625,20.625,20.625
		h124.375c11.563,0,20.625-9.375,20.625-20.625V38.858C182.802,27.296,173.739,17.921,162.177,17.921z M170.927,153.858
		c0,9.688-7.813,17.813-17.813,17.813H46.864c-9.688,0-17.813-7.813-17.813-17.813V47.608c0-9.688,7.813-17.813,17.813-17.813
		h106.25c9.688,0,17.813,7.813,17.813,17.813V153.858z"/>
	<path fill="#272636" d="M151.239,40.421H47.802c-5.313,0-9.375,3.438-9.375,7.813v7.813c0,4.375,4.375,7.813,9.375,7.813h103.438
		c5.313,0,9.375-3.438,9.375-7.813v-7.813C160.614,43.858,156.239,40.421,151.239,40.421z"/>
	<path fill="#272636" d="M66.239,76.046h-10c-3.438,0-6.25,2.813-6.25,6.25v10c0,3.438,2.813,6.25,6.25,6.25h10
		c3.438,0,6.25-2.813,6.25-6.25v-10C72.489,78.858,69.677,76.046,66.239,76.046z"/>
	<path fill="#272636" d="M104.052,76.046h-10c-3.438,0-6.25,2.813-6.25,6.25v10c0,3.438,2.813,6.25,6.25,6.25h10
		c3.438,0,6.25-2.813,6.25-6.25v-10C110.302,78.858,107.489,76.046,104.052,76.046z"/>
	<path fill="#272636" d="M141.864,76.046h-10c-3.438,0-6.25,2.813-6.25,6.25v10c0,3.438,2.813,6.25,6.25,6.25h10
		c3.438,0,6.25-2.813,6.25-6.25v-10C148.114,78.858,145.302,76.046,141.864,76.046z"/>
	<path fill="#272636" d="M66.239,107.608h-10c-3.438,0-6.25,2.813-6.25,6.25v10c0,3.438,2.813,6.25,6.25,6.25h10
		c3.438,0,6.25-2.813,6.25-6.25v-10C72.489,110.421,69.677,107.608,66.239,107.608z"/>
	<path fill="#272636" d="M104.052,107.608h-10c-3.438,0-6.25,2.813-6.25,6.25v10c0,3.438,2.813,6.25,6.25,6.25h10
		c3.438,0,6.25-2.813,6.25-6.25v-10C110.302,110.421,107.489,107.608,104.052,107.608z"/>
	<path fill="#272636" d="M141.864,107.608h-10c-3.438,0-6.25,2.813-6.25,6.25v10c0,3.438,2.813,6.25,6.25,6.25h10
		c3.438,0,6.25-2.813,6.25-6.25v-10C148.114,110.421,145.302,107.608,141.864,107.608z"/>
	<path fill="#272636" d="M66.239,137.608h-10c-3.438,0-6.25,2.813-6.25,6.25v10c0,3.438,2.813,6.25,6.25,6.25h10
		c3.438,0,6.25-2.813,6.25-6.25v-10C72.489,140.421,69.677,137.608,66.239,137.608z"/>
	<path fill="#272636" d="M104.052,137.608h-10c-3.438,0-6.25,2.813-6.25,6.25v10c0,3.438,2.813,6.25,6.25,6.25h10
		c3.438,0,6.25-2.813,6.25-6.25v-10C110.302,140.421,107.489,137.608,104.052,137.608z"/>
	<path fill="#272636" d="M141.864,137.608h-10c-3.438,0-6.25,2.813-6.25,6.25v10c0,3.438,2.813,6.25,6.25,6.25h10
		c3.438,0,6.25-2.813,6.25-6.25v-10C148.114,140.421,145.302,137.608,141.864,137.608z"/>
</g>
</svg>
