<?xml version="1.0" encoding="utf-8"?>
<!-- Generator: Adobe Illustrator 16.0.0, SVG Export Plug-In . SVG Version: 6.00 Build 0)  -->
<!DOCTYPE svg PUBLIC "-//W3C//DTD SVG 1.1//EN" "http://www.w3.org/Graphics/SVG/1.1/DTD/svg11.dtd">
<svg version="1.1" id="图层_1" xmlns="http://www.w3.org/2000/svg" xmlns:xlink="http://www.w3.org/1999/xlink" x="0px" y="0px"
	 width="200px" height="200px" viewBox="0 0 200 200" enable-background="new 0 0 200 200" xml:space="preserve">
<path fill="rgb(71,120,199)" d="M169.677,51.046"/>
<path fill="rgb(71,120,199)" d="M162.177,17.921H37.802c-11.563,0-20.625,9.375-20.625,20.625v124.375c0,11.563,9.375,20.625,20.625,20.625
	h124.375c11.563,0,20.625-9.375,20.625-20.625V38.858C182.802,27.296,173.739,17.921,162.177,17.921z M72.489,153.858
	c0,3.438-2.813,6.25-6.25,6.25h-10c-3.438,0-6.25-2.813-6.25-6.25v-10c0-3.438,2.813-6.25,6.25-6.25h10
	c3.438,0,6.25,2.813,6.25,6.25V153.858z M72.489,123.858c0,3.438-2.813,6.25-6.25,6.25h-10c-3.438,0-6.25-2.813-6.25-6.25v-10
	c0-3.438,2.813-6.25,6.25-6.25h10c3.438,0,6.25,2.813,6.25,6.25V123.858z M72.489,92.296c0,3.438-2.813,6.25-6.25,6.25h-10
	c-3.438,0-6.25-2.813-6.25-6.25v-10c0-3.438,2.813-6.25,6.25-6.25h10c3.438,0,6.25,2.813,6.25,6.25V92.296z M110.302,153.858
	c0,3.438-2.813,6.25-6.25,6.25h-10c-3.438,0-6.25-2.813-6.25-6.25v-10c0-3.438,2.813-6.25,6.25-6.25h10
	c3.438,0,6.25,2.813,6.25,6.25V153.858z M110.302,123.858c0,3.438-2.813,6.25-6.25,6.25h-10c-3.438,0-6.25-2.813-6.25-6.25v-10
	c0-3.438,2.813-6.25,6.25-6.25h10c3.438,0,6.25,2.813,6.25,6.25V123.858z M110.302,92.296c0,3.438-2.813,6.25-6.25,6.25h-10
	c-3.438,0-6.25-2.813-6.25-6.25v-10c0-3.438,2.813-6.25,6.25-6.25h10c3.438,0,6.25,2.813,6.25,6.25V92.296z M148.114,153.858
	c0,3.438-2.813,6.25-6.25,6.25h-10c-3.438,0-6.25-2.813-6.25-6.25v-10c0-3.438,2.813-6.25,6.25-6.25h10
	c3.438,0,6.25,2.813,6.25,6.25V153.858z M148.114,123.858c0,3.438-2.813,6.25-6.25,6.25h-10c-3.438,0-6.25-2.813-6.25-6.25v-10
	c0-3.438,2.813-6.25,6.25-6.25h10c3.438,0,6.25,2.813,6.25,6.25V123.858z M148.114,92.296c0,3.438-2.813,6.25-6.25,6.25h-10
	c-3.438,0-6.25-2.813-6.25-6.25v-10c0-3.438,2.813-6.25,6.25-6.25h10c3.438,0,6.25,2.813,6.25,6.25V92.296z M160.614,56.046
	c0,4.375-4.063,7.813-9.375,7.813H47.802c-5,0-9.375-3.438-9.375-7.813v-7.813c0-4.375,4.063-7.813,9.375-7.813h103.438
	c5,0,9.375,3.438,9.375,7.813V56.046z"/>
</svg>
