<?xml version="1.0" encoding="utf-8"?>
<!-- Generator: Adobe Illustrator 16.0.0, SVG Export Plug-In . SVG Version: 6.00 Build 0)  -->
<!DOCTYPE svg PUBLIC "-//W3C//DTD SVG 1.1//EN" "http://www.w3.org/Graphics/SVG/1.1/DTD/svg11.dtd">
<svg version="1.1" id="图层_1" xmlns="http://www.w3.org/2000/svg" xmlns:xlink="http://www.w3.org/1999/xlink" x="0px" y="0px"
	 width="200px" height="200px" viewBox="0 0 200 200" enable-background="new 0 0 200 200" xml:space="preserve">
<path fill="#272636" d="M105.733,16v80.267H186C186,51.937,150.063,16,105.733,16z M117.2,84.8V28.498
	c28.786,4.846,51.497,27.521,56.342,56.302H117.2z"/>
<path fill="#272636" d="M94.267,107.733V27.467C49.937,27.467,14,63.402,14,107.733C14,152.063,49.937,188,94.267,188
	s80.267-35.937,80.267-80.267H94.267z M94.267,176.533c-37.995,0-68.8-30.805-68.8-68.8c0-34.079,24.809-62.298,57.333-67.769V119.2
	h79.235C156.564,151.725,128.346,176.533,94.267,176.533z"/>
</svg>
