<?xml version="1.0" encoding="utf-8"?>
<!-- Generator: Adobe Illustrator 16.0.0, SVG Export Plug-In . SVG Version: 6.00 Build 0)  -->
<!DOCTYPE svg PUBLIC "-//W3C//DTD SVG 1.1//EN" "http://www.w3.org/Graphics/SVG/1.1/DTD/svg11.dtd">
<svg version="1.1" id="图层_1" xmlns="http://www.w3.org/2000/svg" xmlns:xlink="http://www.w3.org/1999/xlink" x="0px" y="0px"
	 width="200px" height="200px" viewBox="0 0 200 200" enable-background="new 0 0 200 200" xml:space="preserve">
<g>
	<path fill="#272636" d="M157.637,70.774c0-31.296-25.37-56.667-56.667-56.667c-31.296,0-56.667,25.371-56.667,56.667
		c-12.518,0-22.666,10.148-22.666,22.667v68c0,12.519,10.148,22.667,22.666,22.667h113.334c12.518,0,22.666-10.148,22.666-22.667
		v-68C180.303,80.923,170.154,70.774,157.637,70.774L157.637,70.774z M100.97,25.441c25.036,0,45.333,20.296,45.333,45.333H55.637
		C55.637,45.737,75.933,25.441,100.97,25.441L100.97,25.441z M168.97,156.908c0,8.763-7.104,15.866-15.867,15.866H48.837
		c-8.763,0-15.867-7.104-15.867-15.866V97.975c0-8.764,7.104-15.867,15.867-15.867h104.266c8.764,0,15.867,7.104,15.867,15.867
		V156.908L168.97,156.908z M168.97,156.908"/>
	<path fill="#272636" d="M100.97,91.693c-12.519,0-22.667,10.148-22.667,22.668c0,10.562,7.224,19.436,17,21.952v21.208
		c0,3.13,2.537,5.666,5.667,5.666c3.129,0,5.667-2.536,5.667-5.666v-21.208c9.776-2.517,17-11.391,17-21.952
		C123.637,101.842,113.488,91.693,100.97,91.693L100.97,91.693z M100.97,125.694c-6.26,0-11.333-5.074-11.333-11.333
		s5.073-11.334,11.333-11.334s11.333,5.075,11.333,11.334S107.229,125.694,100.97,125.694L100.97,125.694z M100.97,125.694"/>
</g>
</svg>
