<?xml version="1.0" encoding="utf-8"?>
<!-- Generator: Adobe Illustrator 16.0.0, SVG Export Plug-In . SVG Version: 6.00 Build 0)  -->
<!DOCTYPE svg PUBLIC "-//W3C//DTD SVG 1.1//EN" "http://www.w3.org/Graphics/SVG/1.1/DTD/svg11.dtd">
<svg version="1.1" id="图层_1" xmlns="http://www.w3.org/2000/svg" xmlns:xlink="http://www.w3.org/1999/xlink" x="0px" y="0px"
	 width="200px" height="200px" viewBox="0 0 200 200" enable-background="new 0 0 200 200" xml:space="preserve">
<path fill="#999999" d="M175.689,32.666h-28.078c0-11.523,0-20.05,0-20.05H55.394v20.05H27.316
	c-16.017,1.926-12.939,9.021-12.943,9.021l12.943,49.615c0.623,9.021,8.634,13.527,8.634,13.532h21.092
	c3.29,10.337,12.792,29.118,38.444,31.71v35.035H75.444c-2.212,0-4.013,1.802-4.013,4.014v8.018c0,2.216,1.801,4.006,4.013,4.006
	h52.117c2.225,0,4.013-1.79,4.013-4.006v-8.018c0-2.213-1.788-4.014-4.013-4.014H107.52v-35.023
	c23.396-2.584,33.358-20.03,37.43-31.722h22.114c0,0,8.01-4.51,8.626-13.531l12.942-49.615
	C188.632,41.687,191.719,34.592,175.689,32.666z M39.321,90.483l-0.074-1.127l-0.286-1.092L27.611,44.76
	c0.157-0.016,0.313-0.043,0.478-0.063h27.306v48.111H40.277C39.799,92.174,39.385,91.375,39.321,90.483z M101.505,124.883
	c-28.061,0-33.351-23.422-34.079-27.705V32.666v-8.019h68.162v8.019v3.813v56.89C134.81,98.502,129.452,124.883,101.505,124.883z
	 M164.053,88.263l-0.287,1.092l-0.069,1.127c-0.066,0.881-0.489,1.684-0.968,2.326h-15.117c0-5.689,0-28.315,0-48.112h27.306
	c0.165,0.02,0.333,0.047,0.478,0.063L164.053,88.263z"/>
</svg>
