<?xml version="1.0" encoding="utf-8"?>
<!-- Generator: Adobe Illustrator 16.0.0, SVG Export Plug-In . SVG Version: 6.00 Build 0)  -->
<!DOCTYPE svg PUBLIC "-//W3C//DTD SVG 1.1//EN" "http://www.w3.org/Graphics/SVG/1.1/DTD/svg11.dtd">
<svg version="1.1" id="图层_1" xmlns="http://www.w3.org/2000/svg" xmlns:xlink="http://www.w3.org/1999/xlink" x="0px" y="0px"
	 width="200px" height="200px" viewBox="0 0 200 200" enable-background="new 0 0 200 200" xml:space="preserve">
<path fill="rgb(71,120,199)" d="M175.688,32.666h-28.077c0-11.523,0-20.05,0-20.05H55.394v20.05H27.316
	c-16.018,1.926-12.939,9.021-12.943,9.021l12.943,49.615c0.623,9.021,8.634,13.527,8.634,13.532h21.092
	c3.289,10.337,12.791,29.118,38.444,31.71v35.035H75.443c-2.211,0-4.012,1.802-4.012,4.013v8.019c0,2.216,1.801,4.005,4.012,4.005
	h52.117c2.225,0,4.015-1.789,4.015-4.005v-8.019c0-2.212-1.79-4.013-4.015-4.013h-20.042v-35.023
	c23.397-2.584,33.358-20.03,37.431-31.723h22.114c0,0,8.01-4.509,8.625-13.531l12.943-49.615
	C188.632,41.687,191.718,34.592,175.688,32.666z M39.32,90.483l-0.074-1.127l-0.284-1.092L27.611,44.76
	c0.157-0.016,0.312-0.043,0.478-0.063h27.307v48.111H40.277C39.799,92.174,39.384,91.376,39.32,90.483z M164.052,88.264
	l-0.286,1.092l-0.07,1.127c-0.065,0.881-0.488,1.684-0.967,2.326h-15.117c0-5.688,0-28.315,0-48.112h27.306
	c0.166,0.02,0.334,0.047,0.478,0.063L164.052,88.264z"/>
</svg>
