<?xml version="1.0" encoding="utf-8"?>
<!-- Generator: Adobe Illustrator 16.0.0, SVG Export Plug-In . SVG Version: 6.00 Build 0)  -->
<!DOCTYPE svg PUBLIC "-//W3C//DTD SVG 1.1//EN" "http://www.w3.org/Graphics/SVG/1.1/DTD/svg11.dtd">
<svg version="1.1" id="图层_1" xmlns="http://www.w3.org/2000/svg" xmlns:xlink="http://www.w3.org/1999/xlink" x="0px" y="0px"
	 width="200px" height="200px" viewBox="0 0 200 200" enable-background="new 0 0 200 200" xml:space="preserve">
<g>
	<path fill="#272636" d="M80.253,54.774c-3.811,0-6.896,3.086-6.896,6.896v93.104c0,3.811,3.086,6.896,6.896,6.896
		c3.807,0,6.896-3.086,6.896-6.896V61.671C87.149,57.86,84.06,54.774,80.253,54.774z"/>
	<path fill="#272636" d="M121.632,54.774c-3.811,0-6.896,3.086-6.896,6.896v93.104c0,3.811,3.086,6.896,6.896,6.896
		c3.807,0,6.896-3.086,6.896-6.896V61.671C128.528,57.86,125.438,54.774,121.632,54.774z"/>
	<path fill="#272636" d="M178.622,27.274l-14.842,0.007c-0.248-0.024-0.479-0.076-0.744-0.076c-0.266,0-0.504,0.056-0.76,0.08
		l-51.062,0.023l0.017-9.138c0-4.534-3.779-8.207-8.313-8.207c-0.732,0-1.353,0.062-1.994,0.11c-0.693-0.049-1.355-0.11-2.154-0.11
		c-4.531,0-8.207,3.673-8.207,8.207l0.037,9.148l-49.796,0.024c-0.583-0.159-1.204-0.27-1.89-0.27c-0.689,0-1.317,0.11-1.91,0.272
		L22.339,27.35c-4.531,0-7.68,1.818-7.68,6.353c0,4.53,3.146,7.021,7.68,7.021l9.518-0.004l0.068,133.049
		c0.369,8.706,6.945,15.662,15.752,15.662h8.211v0.072l90.296-0.056v-0.017h8.207c9.052,0,15.5-7.324,15.521-16.369l-0.072-132.406
		l8.783-0.004c4.531,0,8.207-2.486,8.207-7.021C186.829,29.096,183.156,27.274,178.622,27.274z M156.036,159.36
		c0.055,10.786-2.012,14.752-9.305,15.959l-93.271,0.055c-4.559-0.976-6.776-3.324-7.684-8.341l-0.064-126.32l110.32-0.056
		l0.068,134.651L156.036,159.36z"/>
</g>
</svg>
