<?xml version="1.0" encoding="utf-8"?>
<!-- Generator: Adobe Illustrator 16.0.0, SVG Export Plug-In . SVG Version: 6.00 Build 0)  -->
<!DOCTYPE svg PUBLIC "-//W3C//DTD SVG 1.1//EN" "http://www.w3.org/Graphics/SVG/1.1/DTD/svg11.dtd">
<svg version="1.1" id="图层_1" xmlns="http://www.w3.org/2000/svg" xmlns:xlink="http://www.w3.org/1999/xlink" x="0px" y="0px"
	 width="200px" height="200px" viewBox="0 0 200 200" enable-background="new 0 0 200 200" xml:space="preserve">
<path fill="rgb(71,120,199)" d="M124.753,33.703h36.975c3.361,0,5.378,1.793,5.378,5.378v31.596c0,3.361,3.585,4.706,7.171,4.706
	c3.585,0,6.05-2.689,6.05-6.05v-30.7c0-10.084-8.067-18.151-18.15-18.151h-36.975c-3.361,0-6.05,2.689-6.05,6.05
	S121.392,33.703,124.753,33.703z M72.093,165.467h-31.82c-3.361,0-5.379-1.793-5.379-5.379v-28.907c0-3.36-3.585-7.395-7.171-7.395
	c-3.585,0-5.825,2.688-5.825,6.05v30.252c0,10.084,8.066,18.151,18.15,18.151H70.3c3.361,0,6.051-2.688,6.051-6.05
	C76.798,169.276,75.454,165.467,72.093,165.467z M27.946,75.384c3.361,0,7.172-4.034,7.172-7.395V38.857
	c0-3.361,1.793-5.378,5.377-5.378h28.908c3.361,0,7.395-3.585,7.395-7.171s-2.689-5.826-6.051-5.826H40.048
	c-10.084,0-18.151,8.067-18.151,18.151v30.252C21.896,72.47,24.585,75.384,27.946,75.384z M174.052,123.787
	c-3.361,0-7.17,4.034-7.17,7.395v28.907c0,3.361-1.793,5.379-5.379,5.379h-36.75c-3.361,0-5.602,3.585-5.602,7.17
	c0,3.586,2.688,6.051,6.05,6.051h36.302c10.084,0,18.151-8.067,18.151-18.151v-30.7C180.103,126.7,177.413,123.787,174.052,123.787z
	 M181.447,94.207H20.552c-3.585,0-6.498,2.913-6.498,6.499s2.912,6.499,6.498,6.499h160.895c3.586,0,6.5-2.913,6.5-6.499
	S185.032,94.207,181.447,94.207z"/>
</svg>
