<?xml version="1.0" encoding="utf-8"?>
<!-- Generator: Adobe Illustrator 16.0.0, SVG Export Plug-In . SVG Version: 6.00 Build 0)  -->
<!DOCTYPE svg PUBLIC "-//W3C//DTD SVG 1.1//EN" "http://www.w3.org/Graphics/SVG/1.1/DTD/svg11.dtd">
<svg version="1.1" id="图层_1" xmlns="http://www.w3.org/2000/svg" xmlns:xlink="http://www.w3.org/1999/xlink" x="0px" y="0px"
	 width="200px" height="200px" viewBox="0 0 200 200" enable-background="new 0 0 200 200" xml:space="preserve">
<path fill="rgb(71,120,199)" d="M161.409,17.964h-3.889h-7.074H126.65c-1.37-3.085-4.209-5.287-7.521-5.287H81.113
	c-3.312,0-6.15,2.201-7.521,5.287H40.592c-15.395,0-21.926,9.426-21.926,21.839v122.991c0,13.333,8.163,22.759,23.092,22.759
	h118.484c14.929,0,23.092-7.817,23.092-22.759V39.803C183.334,27.39,175.637,17.964,161.409,17.964z M142.283,134.518H59.95
	c-3.032,0-5.598-2.529-5.598-5.517s2.565-5.518,5.598-5.518h82.1c3.032,0,5.599,2.3,5.832,5.518
	C147.882,131.989,145.315,134.518,142.283,134.518z M142.283,102.104H59.95c-3.032,0-5.598-2.528-5.598-5.516
	c0-2.989,2.565-5.519,5.598-5.519h82.1c3.032,0,5.599,2.299,5.832,5.519C147.882,99.576,145.315,102.104,142.283,102.104z
	 M142.283,72.218H59.95c-3.032,0-5.598-2.528-5.598-5.518c0-2.988,2.565-5.518,5.598-5.518h82.333c3.032,0,5.599,2.53,5.599,5.518
	C147.882,69.689,145.315,72.218,142.283,72.218z"/>
</svg>
