<?xml version="1.0" encoding="utf-8"?>
<!-- Generator: Adobe Illustrator 16.0.0, SVG Export Plug-In . SVG Version: 6.00 Build 0)  -->
<!DOCTYPE svg PUBLIC "-//W3C//DTD SVG 1.1//EN" "http://www.w3.org/Graphics/SVG/1.1/DTD/svg11.dtd">
<svg version="1.1" id="图层_1" xmlns="http://www.w3.org/2000/svg" xmlns:xlink="http://www.w3.org/1999/xlink" x="0px" y="0px"
	 width="200px" height="200px" viewBox="0 0 200 200" enable-background="new 0 0 200 200" xml:space="preserve">
<g>
	<path fill="#999999" d="M161.242,18.434h-10.961c-3.033,0-6.533,1.839-6.533,4.828c0,2.988,3.5,5.977,6.533,5.977h10.961
		c6.531,0,10.962,4.369,10.962,10.805v124.37c0,6.437-4.431,10.805-10.962,10.805H43.223c-6.529,0-13.761-4.368-13.761-10.805
		V40.043c0-6.437,4.431-10.806,10.963-10.806h13.761c3.033,0,4.199-2.988,4.199-5.977c0-2.988-1.166-4.828-4.199-4.828H40.425
		c-15.395,0-21.925,9.426-21.925,21.839v122.991c0,13.333,8.162,22.759,23.091,22.759h118.484c14.929,0,23.092-7.817,23.092-22.759
		V40.272C183.167,27.859,175.47,18.434,161.242,18.434L161.242,18.434L161.242,18.434L161.242,18.434z M54.186,67.169
		c0,2.991,2.565,5.518,5.598,5.518h82.333c3.032,0,5.599-2.529,5.599-5.518c0-2.988-2.566-5.518-5.599-5.518H59.783
		C56.751,61.652,54.186,64.182,54.186,67.169L54.186,67.169L54.186,67.169L54.186,67.169z M141.883,91.539h-82.1
		c-3.032,0-5.598,2.529-5.598,5.518c0,2.989,2.565,5.516,5.598,5.516h82.333c3.032,0,5.599-2.527,5.599-5.516
		C147.48,93.837,144.915,91.539,141.883,91.539L141.883,91.539L141.883,91.539L141.883,91.539z M141.883,123.953h-82.1
		c-3.032,0-5.598,2.529-5.598,5.517c0,2.989,2.565,5.517,5.598,5.517h82.333c3.032,0,5.599-2.528,5.599-5.517
		C147.48,126.252,144.915,123.953,141.883,123.953L141.883,123.953L141.883,123.953L141.883,123.953z M81.94,31.997h38.251
		c4.432,0,8.164-4.368,8.164-9.425s-3.732-9.426-8.397-9.426H81.94c-4.665,0-8.396,4.368-8.396,9.426
		C73.545,27.629,77.275,31.997,81.94,31.997L81.94,31.997L81.94,31.997L81.94,31.997z M81.94,31.997"/>
</g>
</svg>
