<?xml version="1.0" encoding="utf-8"?>
<!-- Generator: Adobe Illustrator 16.0.0, SVG Export Plug-In . SVG Version: 6.00 Build 0)  -->
<!DOCTYPE svg PUBLIC "-//W3C//DTD SVG 1.1//EN" "http://www.w3.org/Graphics/SVG/1.1/DTD/svg11.dtd">
<svg version="1.1" id="图层_1" xmlns="http://www.w3.org/2000/svg" xmlns:xlink="http://www.w3.org/1999/xlink" x="0px" y="0px"
	 width="200px" height="200px" viewBox="0 0 200 200" enable-background="new 0 0 200 200" xml:space="preserve">
<g>
	<path fill="rgb(71,120,199)" d="M101.016,10c-49.716,0-90,40.302-90,90s40.284,90,90,90c49.699,0,90-40.302,90-90S150.715,10,101.016,10z
		 M107.766,96.238v13.5h-13.5h-29.25c-3.726,0-6.75-3.024-6.75-6.75c0-3.726,3.024-6.75,6.75-6.75h29.25v-47.25
		c0-3.726,3.024-6.75,6.75-6.75c3.727,0,6.75,3.024,6.75,6.75V96.238z"/>
	<circle fill="#272636" cx="10.584" cy="128.494" r="0.63"/>
</g>
</svg>
