<?xml version="1.0" encoding="utf-8"?>
<!-- Generator: Adobe Illustrator 16.0.0, SVG Export Plug-In . SVG Version: 6.00 Build 0)  -->
<!DOCTYPE svg PUBLIC "-//W3C//DTD SVG 1.1//EN" "http://www.w3.org/Graphics/SVG/1.1/DTD/svg11.dtd">
<svg version="1.1" id="图层_1" xmlns="http://www.w3.org/2000/svg" xmlns:xlink="http://www.w3.org/1999/xlink" x="0px" y="0px"
	 width="200px" height="200px" viewBox="0 0 200 200" enable-background="new 0 0 200 200" xml:space="preserve">
<path fill="#999999" d="M9.954,128.494c0,0.348,0.282,0.629,0.63,0.629s0.631-0.281,0.631-0.629s-0.283-0.63-0.631-0.63
	S9.954,128.146,9.954,128.494z M101.016,10c-49.716,0-90,40.302-90,90s40.284,90,90,90c49.699,0,90-40.302,90-90
	S150.715,10,101.016,10z M101.016,176.5c-42.174,0-76.5-34.308-76.5-76.5s34.326-76.5,76.5-76.5c42.175,0,76.5,34.308,76.5,76.5
	S143.19,176.5,101.016,176.5z M101.016,42.238c-3.726,0-6.75,3.024-6.75,6.75v47.25h-29.25c-3.726,0-6.75,3.024-6.75,6.75
	c0,3.726,3.024,6.75,6.75,6.75h29.25h13.5v-13.5v-47.25C107.766,45.262,104.742,42.238,101.016,42.238z"/>
</svg>
