<?xml version="1.0" standalone="no"?><!DOCTYPE svg PUBLIC "-//W3C//DTD SVG 1.1//EN" "http://www.w3.org/Graphics/SVG/1.1/DTD/svg11.dtd"><svg t="1490249255537" class="icon" style="" viewBox="0 0 1024 1024" version="1.1" xmlns="http://www.w3.org/2000/svg" p-id="3646" xmlns:xlink="http://www.w3.org/1999/xlink" width="200" height="200"><defs><style type="text/css"></style></defs><path d="M948.720991 689.267333 537.525861 281.833877c-0.596588-0.596588-1.419326-0.783853-2.049682-1.340531-0.148379-0.149403-0.188288-0.370437-0.335644-0.522909-14.630209-14.442944-38.20309-14.369266-52.686966 0.227174L75.054905 691.352831c-14.488992 14.635325-14.375405 38.170345 0.221034 52.653197 7.261381 7.184633 16.756639 10.800997 26.216081 10.800997 9.568936 0 19.175735-3.687996 26.436092-11.022031l381.484458-384.945279 386.877281 383.309012c7.261381 7.182586 16.72287 10.794857 26.216081 10.794857 9.609869 0 19.175735-3.687996 26.438139-11.022031C963.433064 727.323067 963.319477 703.756325 948.720991 689.267333L948.720991 689.267333zM948.720991 689.267333" p-id="3647" fill="#8a8a8a"></path></svg>