<?xml version="1.0" encoding="utf-8"?>
<!-- Generator: Adobe Illustrator 16.0.0, SVG Export Plug-In . SVG Version: 6.00 Build 0)  -->
<!DOCTYPE svg PUBLIC "-//W3C//DTD SVG 1.1//EN" "http://www.w3.org/Graphics/SVG/1.1/DTD/svg11.dtd">
<svg version="1.1" id="图层_1" xmlns="http://www.w3.org/2000/svg" xmlns:xlink="http://www.w3.org/1999/xlink" x="0px" y="0px"
	 width="200px" height="200px" viewBox="0 0 200 200" enable-background="new 0 0 200 200" xml:space="preserve">
<g>
	<g>
		<path fill="#272636" d="M98.109,135.552c27.004,0,48.9-27.009,48.9-60.318c0-33.314-21.896-60.318-48.9-60.318
			c-27.012,0-48.905,27.004-48.905,60.318C49.204,108.543,71.098,135.552,98.109,135.552z M98.109,25.869
			c20.934,0,37.965,22.146,37.965,49.364s-17.031,49.363-37.965,49.363c-20.938,0-37.973-22.145-37.973-49.363
			S77.172,25.869,98.109,25.869z M169.848,146.564l-37.047-13.539c-2.844-1.022-5.97,0.456-6.992,3.304
			c-1.021,2.848,0.459,5.984,3.301,7.006l37.042,13.539c3.493,1.252,6.675,5.784,6.675,9.499v3.936c0,3.022-2.452,3.652-5.47,3.652
			H32.502c-3.013,0-5.465-0.63-5.465-3.652v-3.936c0-3.715,3.178-8.247,6.673-9.499l33.396-13.539
			c2.841-1.021,4.318-4.158,3.296-7.006s-4.155-4.326-6.991-3.304l-33.396,13.539c-7.803,2.803-13.917,11.506-13.917,19.809v3.936
			c0,9.06,7.362,14.606,16.404,14.606h134.854c9.047,0,16.4-5.547,16.4-14.606v-3.936
			C183.757,158.07,177.647,149.367,169.848,146.564z"/>
	</g>
</g>
</svg>
