<?xml version="1.0" encoding="utf-8"?>
<!-- Generator: Adobe Illustrator 16.0.0, SVG Export Plug-In . SVG Version: 6.00 Build 0)  -->
<!DOCTYPE svg PUBLIC "-//W3C//DTD SVG 1.1//EN" "http://www.w3.org/Graphics/SVG/1.1/DTD/svg11.dtd">
<svg version="1.1" id="图层_1" xmlns="http://www.w3.org/2000/svg" xmlns:xlink="http://www.w3.org/1999/xlink" x="0px" y="0px"
	 width="200px" height="200px" viewBox="0 0 200 200" enable-background="new 0 0 200 200" xml:space="preserve">
<g>
	<path fill="#272636" d="M99.744,33.156c-66.595,0-93.232,66.594-93.232,66.594s26.638,66.595,93.232,66.595
		c66.594,0,93.232-66.595,93.232-66.595S166.338,33.156,99.744,33.156z M99.744,139.707c-22.06,0-39.957-17.885-39.957-39.957
		s17.897-39.957,39.957-39.957c22.059,0,39.957,17.884,39.957,39.957S121.803,139.707,99.744,139.707z"/>
	<path fill="#272636" d="M99.744,79.772c-11.029,0-19.979,8.949-19.979,19.978c0,11.03,8.949,19.979,19.979,19.979
		s19.979-8.948,19.979-19.979C119.723,88.721,110.773,79.771,99.744,79.772z"/>
</g>
</svg>
